<?xml version="1.0" encoding="UTF-8"?>
<svg id="Capa_1" xmlns="http://www.w3.org/2000/svg" viewBox="0 0 64.99 64.99">
  <defs>
    <style>
      .cls-1, .cls-2, .cls-3 {
        fill: #fff;
      }

      .cls-2 {
        font-family: SFProDisplay-Bold, 'SF Pro Display';
        font-size: 4px;
        font-weight: 700;
      }

      .cls-3 {
        stroke: #fff;
        stroke-width: .12px;
      }

      .cls-4 {
        letter-spacing: -.02em;
      }
    </style>
  </defs>
  <rect width="64.99" height="64.99"/>
  <g>
    <path class="cls-1" d="M14.46,34.6v-3.27h-.03l-1.32,3.22h-.64l-1.32-3.22h-.03v3.27h-.9v-4.84h1.17l1.38,3.43h.03l1.38-3.43h1.17v4.84h-.9Z"/>
    <path class="cls-1" d="M19.37,33.5c-.11.71-.75,1.18-1.64,1.18-1.11,0-1.77-.71-1.77-1.86s.67-1.89,1.74-1.89,1.71.71,1.71,1.8v.3h-2.48v.06c0,.51.33.87.83.87.36,0,.63-.18.73-.45h.9ZM16.93,32.43h1.53c-.02-.46-.32-.78-.76-.78s-.74.33-.77.78Z"/>
    <path class="cls-1" d="M19.77,32.79c0-1.14.57-1.85,1.47-1.85.52,0,.92.28,1.1.67h.02v-1.86h.98v4.84h-.97v-.62h-.02c-.17.4-.59.67-1.12.67-.9,0-1.47-.71-1.47-1.86ZM20.78,32.8c0,.66.3,1.07.8,1.07s.8-.41.8-1.07-.31-1.07-.8-1.07-.8.41-.8,1.07Z"/>
    <path class="cls-1" d="M23.99,30.1c0-.29.23-.51.52-.51s.52.22.52.51-.23.51-.52.51-.52-.23-.52-.51ZM24.02,31h.98v3.6h-.98v-3.6Z"/>
    <path class="cls-1" d="M25.52,33.57c0-.65.5-1.03,1.4-1.09l.91-.05v-.24c0-.34-.23-.53-.6-.53s-.6.18-.64.45h-.9c.04-.7.63-1.18,1.58-1.18s1.52.48,1.52,1.2v2.47h-.95v-.55h-.02c-.2.38-.65.61-1.1.61-.68,0-1.21-.44-1.21-1.09ZM27.82,33.28v-.26l-.76.05c-.37.03-.57.19-.57.45,0,.27.22.44.55.44.43,0,.78-.28.78-.67Z"/>
    <path class="cls-1" d="M34.07,34.6h-3.21v-4.84h3.21v.84h-2.2v1.17h2.07v.78h-2.07v1.22h2.2v.84Z"/>
    <path class="cls-1" d="M34.73,31h.95v.64h.02c.19-.45.57-.71,1.12-.71.8,0,1.25.5,1.25,1.35v2.32h-.98v-2.11c0-.47-.22-.74-.66-.74s-.72.32-.72.79v2.06h-.98v-3.6Z"/>
    <path class="cls-1" d="M41.05,32.34c-.06-.38-.31-.65-.71-.65-.48,0-.79.41-.79,1.1s.3,1.11.79,1.11c.39,0,.65-.24.71-.63h.91c-.05.85-.68,1.4-1.63,1.4-1.08,0-1.77-.71-1.77-1.88s.69-1.87,1.77-1.87c.97,0,1.59.6,1.63,1.42h-.91Z"/>
    <path class="cls-1" d="M42.31,32.8c0-1.17.7-1.87,1.78-1.87s1.78.71,1.78,1.87-.69,1.88-1.78,1.88-1.78-.7-1.78-1.88ZM44.88,32.8c0-.71-.31-1.13-.79-1.13s-.79.41-.79,1.13.31,1.13.79,1.13.79-.41.79-1.13Z"/>
    <path class="cls-1" d="M46.25,32.79c0-1.14.57-1.85,1.47-1.85.52,0,.92.28,1.1.67h.02v-1.86h.98v4.84h-.97v-.62h-.02c-.17.4-.59.67-1.12.67-.9,0-1.47-.71-1.47-1.86ZM47.25,32.8c0,.66.3,1.07.8,1.07s.8-.41.8-1.07-.31-1.07-.8-1.07-.8.41-.8,1.07Z"/>
    <path class="cls-1" d="M53.76,33.5c-.11.71-.75,1.18-1.64,1.18-1.11,0-1.77-.71-1.77-1.86s.67-1.89,1.74-1.89,1.71.71,1.71,1.8v.3h-2.48v.06c0,.51.33.87.83.87.36,0,.63-.18.72-.45h.9ZM51.32,32.43h1.53c-.02-.46-.32-.78-.75-.78s-.74.33-.77.78Z"/>
    <path class="cls-1" d="M54.3,31h.95v.65h.02c.13-.46.43-.71.86-.71.11,0,.21.02.28.04v.86c-.08-.03-.21-.06-.36-.06-.48,0-.77.3-.77.8v2.01h-.98v-3.6Z"/>
  </g>
  <text class="cls-2" transform="translate(24.71 38.67)"><tspan class="cls-4" x="0" y="0">A</tspan><tspan x="2.68" y="0">gency</tspan></text>
  <line class="cls-3" x1="10.19" y1="35.34" x2="56.22" y2="35.34"/>
</svg>